<svg width="24" height="24" viewBox="0 0 24 24" fill="none" xmlns="http://www.w3.org/2000/svg">
<path d="M15 0.75C15 0.551088 14.921 0.360322 14.7803 0.21967C14.6397 0.0790176 14.4489 0 14.25 0H9.75C9.55109 0 9.36032 0.0790176 9.21967 0.21967C9.07902 0.360322 9 0.551088 9 0.75C9 0.948912 8.92098 1.13968 8.78033 1.28033C8.63968 1.42098 8.44891 1.5 8.25 1.5C8.05109 1.5 7.86032 1.57902 7.71967 1.71967C7.57902 1.86032 7.5 2.05109 7.5 2.25V3C7.5 3.19891 7.57902 3.38968 7.71967 3.53033C7.86032 3.67098 8.05109 3.75 8.25 3.75H15.75C15.9489 3.75 16.1397 3.67098 16.2803 3.53033C16.421 3.38968 16.5 3.19891 16.5 3V2.25C16.5 2.05109 16.421 1.86032 16.2803 1.71967C16.1397 1.57902 15.9489 1.5 15.75 1.5C15.5511 1.5 15.3603 1.42098 15.2197 1.28033C15.079 1.13968 15 0.948912 15 0.75Z" fill="#0056B3"/>
<path d="M6.1275 1.5H5.25C4.65326 1.5 4.08097 1.73705 3.65901 2.15901C3.23705 2.58097 3 3.15326 3 3.75V21.75C3 22.3467 3.23705 22.919 3.65901 23.341C4.08097 23.7629 4.65326 24 5.25 24H18.75C19.3467 24 19.919 23.7629 20.341 23.341C20.7629 22.919 21 22.3467 21 21.75V3.75C21 3.15326 20.7629 2.58097 20.341 2.15901C19.919 1.73705 19.3467 1.5 18.75 1.5H17.8725C17.9565 1.736 17.999 1.986 18 2.25V3C18 3.59674 17.7629 4.16903 17.341 4.59099C16.919 5.01295 16.3467 5.25 15.75 5.25H8.25C7.65326 5.25 7.08097 5.01295 6.65901 4.59099C6.23705 4.16903 6 3.59674 6 3V2.25C6.001 1.986 6.0435 1.736 6.1275 1.5ZM9 12H15C15.1989 12 15.3897 12.079 15.5303 12.2197C15.671 12.3603 15.75 12.5511 15.75 12.75C15.75 12.9489 15.671 13.1397 15.5303 13.2803C15.3897 13.421 15.1989 13.5 15 13.5H9C8.80109 13.5 8.61032 13.421 8.46967 13.2803C8.32902 13.1397 8.25 12.9489 8.25 12.75C8.25 12.5511 8.32902 12.3603 8.46967 12.2197C8.61032 12.079 8.80109 12 9 12Z" fill="#0056B3"/>
</svg>
